<svg width="128" height="126" viewBox="0 0 128 126" fill="none" xmlns="http://www.w3.org/2000/svg">
<mask id="mask0_294_653" style="mask-type:luminance" maskUnits="userSpaceOnUse" x="0" y="0" width="128" height="126">
<path d="M0 0.455566H128V125.999H0V0.455566Z" fill="white"/>
</mask>
<g mask="url(#mask0_294_653)">
<mask id="mask1_294_653" style="mask-type:luminance" maskUnits="userSpaceOnUse" x="-6" y="-5" width="140" height="137">
<path d="M119.752 131.738L-5.33765 117.935L8.73189 -4.75342L133.825 9.04608L119.752 131.738Z" fill="white"/>
</mask>
<g mask="url(#mask1_294_653)">
<mask id="mask2_294_653" style="mask-type:luminance" maskUnits="userSpaceOnUse" x="-6" y="-5" width="140" height="137">
<path d="M119.752 131.738L-5.33765 117.935L8.73189 -4.75342L133.825 9.04608L119.752 131.738Z" fill="white"/>
</mask>
<g mask="url(#mask2_294_653)">
<path d="M35.0963 12.7286C35.1128 12.7514 35.1327 12.7709 35.1526 12.7904L39.9573 17.8276C39.6924 18.2985 39.54 18.8148 39.5036 19.341L20.2122 21.9716L32.179 12.4331C33.0664 11.7251 34.3777 11.8583 35.0963 12.7286ZM52.5433 18.1458L39.3645 28.6489C38.2154 28.3048 36.9174 28.5093 35.9175 29.3081C34.9141 30.1072 34.4474 31.3087 34.5564 32.4812L21.4042 42.9616C22.679 40.399 24.1923 37.9536 25.9306 35.651L41.8246 22.9816C43.0434 23.4656 44.4837 23.2999 45.5732 22.4296C46.391 21.78 46.8513 20.8577 46.9375 19.9061C48.7684 19.2046 50.6393 18.6168 52.5433 18.1458ZM60.2387 5.3791C60.3578 4.26189 61.3776 3.44997 62.5169 3.56362L67.1691 4.03455L58.8909 12.9755L60.2288 5.46028C60.232 5.43431 60.2355 5.40507 60.2387 5.3791ZM66.3745 30.5099L64.6792 27.5739C65.5334 26.2813 65.4871 24.5438 64.4407 23.2837C63.6758 22.3613 62.5499 21.9002 61.4242 21.9359L59.4605 18.529C60.3083 17.5742 60.5798 16.2687 60.2222 15.0865L69.0003 5.60968L66.3745 30.5099ZM55.1426 34.3941C54.7221 34.5209 54.3017 34.6572 53.8876 34.8L60.2022 28.9997C61.0101 29.3049 61.9108 29.331 62.7419 29.0548L65.0664 33.0884C61.6989 32.9878 58.371 33.4262 55.1426 34.3941ZM92.4604 66.2639C90.8481 81.5866 76.8249 92.7619 61.2021 91.1771C50.5467 90.0954 41.3678 83.165 37.5367 73.4056C37.5168 73.1944 37.4407 72.9898 37.3149 72.8145C37.3083 72.7948 37.3016 72.7754 37.295 72.7591C37.2884 72.6553 37.2684 72.5482 37.232 72.4475C35.8877 68.6086 35.4242 64.5978 35.8545 60.5219C36.464 54.741 38.8414 49.5479 42.4041 45.4104L45.2818 42.5165C51.0432 37.5054 58.8414 34.7806 67.0864 35.6087C82.6924 37.2033 94.0765 50.9508 92.4604 66.2639ZM18.4141 69.5147L23.838 64.0651L32.4704 71.7004L18.4141 69.5147ZM18.785 77.3612C18.1956 75.5295 17.7254 73.6589 17.3744 71.7686L29.722 73.6882L18.785 77.3612ZM27.4637 60.4244C28.646 60.8338 30.0135 60.6486 31.0599 59.8139C32.3412 58.7941 32.7518 57.1086 32.1923 55.6729L35.3114 52.5358C34.3447 55.0073 33.7155 57.5989 33.4339 60.2784C33.093 63.5066 33.2717 66.6957 33.9605 69.8072L25.54 62.3568L27.4637 60.4244ZM5.33468 67.3128L11.4307 65.0525C12.742 66.5398 15.0334 66.7478 16.5996 65.4973C17.5201 64.7667 17.987 63.6981 17.9771 62.6231L24.1625 60.3269L15.4804 69.0505L5.33468 67.3128ZM3.19559 65.5591C3.1691 65.387 3.16248 65.2115 3.17905 65.0331L4.77837 49.8792L11.5367 60.1516C10.8247 60.8921 10.4771 61.8696 10.5267 62.8375L3.19559 65.5591ZM7.08965 47.7421C7.11614 47.7421 7.14262 47.7455 7.17243 47.7455L14.7751 47.9954C14.9141 48.356 15.1128 48.7036 15.3744 49.0219C16.4704 50.3435 18.3082 50.7204 19.8181 50.0447L25.3081 55.475C25.0235 56.0986 24.9209 56.7871 25.0134 57.4626L17.1592 60.3757L17.1426 60.353C16.2817 59.3137 14.9605 58.8622 13.7022 59.0442L6.30818 47.807C6.55653 47.7389 6.81813 47.713 7.08965 47.7421ZM38.3944 35.8004C39.1294 35.7775 39.8644 35.5405 40.4936 35.0794L44.5566 39.9736C43.0564 41.1818 41.689 42.5101 40.4604 43.9489L32.0399 52.4123L38.3944 35.8004ZM41.8943 32.991C42.0002 32.5656 42.0235 32.124 41.9672 31.6888L57.9109 27.837L46.3976 38.4147L41.8943 32.991ZM21.5797 48.4015C22.0201 47.5636 22.1161 46.5893 21.8479 45.6831L35.6127 34.7124C35.7552 34.8552 35.9042 34.9819 36.0632 35.0989L29.0864 53.3378C28.3711 53.2665 27.636 53.3964 26.9771 53.7374L21.5797 48.4015ZM57.3512 19.721L59.1326 22.8063C58.3215 23.4818 57.8745 24.4301 57.8248 25.4013L42.7187 29.0484L54.8844 19.354C55.6393 19.7502 56.5169 19.8769 57.3512 19.721ZM25.2916 33.0884L19.6195 25.1738C19.6029 25.1512 19.583 25.1283 19.5665 25.1056C19.4175 24.9238 19.3049 24.7224 19.2254 24.5146L39.5201 21.7443L25.2916 33.0884ZM16.7088 23.2772C16.6989 23.3357 16.6923 23.3941 16.689 23.4526C16.5963 24.5406 16.9075 25.661 17.6526 26.5769L23.5499 34.8067C21.6426 37.4079 20.0102 40.1782 18.6625 43.0785C17.7122 42.981 16.7188 43.2375 15.9175 43.8773C15.3314 44.345 14.9307 44.9491 14.7155 45.6051L7.29163 45.3649C5.97706 45.2447 4.73864 45.6927 3.83136 46.508C3.79163 46.5405 3.75852 46.573 3.72541 46.6087C2.99691 47.3036 2.50685 48.2423 2.39427 49.3109L0.761823 64.7862C0.64924 65.8513 0.934009 66.868 1.49692 67.6929C1.52672 67.7384 1.55653 67.7837 1.58964 67.8228C2.30818 68.7971 3.42408 69.4854 4.73534 69.6316L14.8347 71.3595C15.2652 73.9316 15.9075 76.4811 16.7552 78.9526C16.7585 79.0631 16.7817 79.1766 16.8181 79.284C17.2817 80.6122 17.8115 81.9339 18.3943 83.2233L10.9042 90.0954C9.00687 91.6382 8.7254 94.4053 10.285 96.2857L20.2883 108.361C21.8446 110.238 24.6624 110.533 26.5896 109.03L34.9803 103.245C38.4207 105.668 42.1493 107.649 46.0865 109.14L45.7453 119.189C45.5201 121.595 47.3116 123.745 49.7686 123.995L65.5499 125.593C68.0068 125.843 70.2122 124.099 70.4904 121.699L72.2519 111.794C76.4175 111.124 80.4804 109.933 84.3513 108.25L91.3613 115.596C92.9309 117.457 95.7519 117.73 97.6693 116.204L109.98 106.392C111.894 104.866 112.199 102.102 110.663 100.212L104.765 91.9823C107.239 88.6081 109.255 84.9511 110.775 81.0896L121.024 81.4241C123.474 81.6481 125.666 79.8846 125.921 77.4781L127.553 61.9996C127.808 59.5899 126.027 57.4269 123.58 57.1541L113.48 55.4263C112.798 51.3373 111.586 47.3556 109.871 43.5558L117.358 36.6869C119.255 35.141 119.537 32.3773 117.98 30.4968L107.974 18.4219C106.417 16.5414 103.6 16.2459 101.672 17.7528L93.2816 23.537C89.8447 21.1142 86.1161 19.1331 82.1757 17.6424L82.5169 7.59078C82.7454 5.18749 80.9506 3.03749 78.4936 2.78743L70.6558 1.99174L70.6029 1.98524L69.8149 1.9073H69.8114L62.7653 1.19281C60.3083 0.942733 58.1029 2.68675 57.8248 5.09005L56.5103 12.4753C55.7287 12.5013 54.9506 12.7676 54.295 13.2905C53.5401 13.8913 53.0896 14.7195 52.9571 15.5931C50.7055 16.103 48.4937 16.7656 46.3314 17.5775C46.2652 17.4768 46.1955 17.3794 46.1163 17.2852C45.0432 15.9926 43.2519 15.6029 41.7619 16.2264L36.9538 11.1892C35.3811 9.33155 32.5632 9.0555 30.6459 10.5819L18.3347 20.3932C17.3976 21.1402 16.8479 22.186 16.7088 23.2772Z" fill="#E3A72F"/>
</g>
</g>
</g>
</svg>
