<svg width="41" height="38" viewBox="0 0 41 38" fill="none" xmlns="http://www.w3.org/2000/svg">
<path d="M6.4243 28.2882C6.28623 28.5274 6.36817 28.8332 6.60732 28.9713C6.84646 29.1093 7.15226 29.0274 7.29033 28.7882L6.4243 28.2882ZM26.2638 22.4624L25.8308 22.2124L26.2638 22.4624ZM15.4379 19.6762L15.1879 20.1092L21.9158 23.9935L22.1658 23.5605L22.4158 23.1275L15.6879 19.2432L15.4379 19.6762ZM26.2638 22.4624L26.6969 22.7124L37.3251 4.30383L36.892 4.05383L36.459 3.80383L25.8308 22.2124L26.2638 22.4624ZM6.85732 28.5382L7.29033 28.7882L11.7729 21.0243L11.3398 20.7743L10.9068 20.5243L6.4243 28.2882L6.85732 28.5382ZM22.1658 23.5605L21.9158 23.9935C23.5898 24.96 25.7304 24.3864 26.6969 22.7124L26.2638 22.4624L25.8308 22.2124C25.1405 23.4082 23.6115 23.8178 22.4158 23.1275L22.1658 23.5605ZM15.4379 19.6762L15.6879 19.2432C14.0139 18.2767 11.8733 18.8502 10.9068 20.5243L11.3398 20.7743L11.7729 21.0243C12.4632 19.8285 13.9922 19.4188 15.1879 20.1092L15.4379 19.6762Z" fill="black"/>
<circle cx="3.737" cy="34.1163" r="3.12032" fill="black"/>
<path d="M40.0124 4.05385C40.0124 5.77715 38.6153 7.17416 36.892 7.17416C35.1687 7.17416 33.7717 5.77715 33.7717 4.05385C33.7717 2.33055 35.1687 0.933533 36.892 0.933533C38.6153 0.933533 40.0124 2.33055 40.0124 4.05385Z" fill="black"/>
</svg>
