<?xml version="1.0" encoding="UTF-8"?><svg id="a" xmlns="http://www.w3.org/2000/svg" viewBox="0 0 512 512"><path d="M510.68,0s7.65,202.92-139.53,200.61c-56.23-.88-182.61,20.47-240.51,99.87,4.46-29.94,5.57-57.26,10.43-78.13C180.49,51.92,309.35,73.98,408.58,47.54,458.52,34.24,510.68,0,510.68,0Z" fill="#000"/><path d="M77.15,427.9c14.79-16.62,35.27-50.66,35.27-50.66,0,0,11.98-7.78,24.31-11.52,23.65-7.17,29.78-1.37,29.78-1.37,0,0-44.07,46.4-58.38,59.89-32.46,30.62-101.62,83.46-106.88,87.76,2.71-2.79,52.26-57.53,75.9-84.1Z" fill="#000"/><path d="M350.78,264.27s-24.74,104.12-99.15,82.2c-28.43-8.37-95.62-15.36-136.22,16.8,6.49-14.58,10.91-28.29,16.32-38.2,44.05-80.99,106.38-51.61,160.5-51.04,27.23.29,58.55-9.75,58.55-9.75Z" fill="#000"/></svg>