<svg width="39" height="16" viewBox="0 0 39 16" fill="none" xmlns="http://www.w3.org/2000/svg">
<path d="M38.0438 0.756104V5.01693C38.0438 5.25894 38.0719 5.41416 38.1282 5.48261C38.1844 5.54861 38.2944 5.5865 38.4582 5.59628V5.72829H36.6064V5.59628C36.758 5.59139 36.8705 5.54739 36.9438 5.46428C36.9927 5.40805 37.0171 5.25894 37.0171 5.01693V1.46746C37.0171 1.2279 36.989 1.07512 36.9328 1.00911C36.8766 0.940666 36.7678 0.901553 36.6064 0.891775V0.756104H38.0438Z" fill="black"/>
<path d="M35.9537 0.756104V5.01693C35.9537 5.25894 35.9819 5.41416 36.0381 5.48261C36.0943 5.54861 36.2043 5.5865 36.3681 5.59628V5.72829H34.5164V5.59628C34.6679 5.59139 34.7804 5.54739 34.8537 5.46428C34.9026 5.40805 34.927 5.25894 34.927 5.01693V1.46746C34.927 1.2279 34.8989 1.07512 34.8427 1.00911C34.7865 0.940666 34.6777 0.901553 34.5164 0.891775V0.756104H35.9537Z" fill="black"/>
<path d="M32.7491 5.22238C32.3311 5.5915 31.9559 5.77606 31.6234 5.77606C31.4279 5.77606 31.2653 5.71251 31.1357 5.58539C31.0062 5.45583 30.9414 5.29449 30.9414 5.10137C30.9414 4.83981 31.0539 4.60513 31.2788 4.39735C31.5036 4.18712 31.9938 3.90844 32.7491 3.56132V3.21664C32.7491 2.95752 32.7345 2.79495 32.7051 2.72895C32.6782 2.6605 32.6257 2.60184 32.5475 2.55295C32.4692 2.50161 32.3812 2.47594 32.2835 2.47594C32.1246 2.47594 31.9938 2.51139 31.8911 2.58228C31.8275 2.62628 31.7958 2.67762 31.7958 2.73629C31.7958 2.78762 31.83 2.85118 31.8984 2.92696C31.9913 3.03207 32.0378 3.13352 32.0378 3.2313C32.0378 3.35109 31.9926 3.45376 31.9021 3.53931C31.8141 3.62243 31.698 3.66399 31.5538 3.66399C31.3998 3.66399 31.2702 3.61754 31.1651 3.52465C31.0624 3.43176 31.0111 3.32297 31.0111 3.1983C31.0111 3.0223 31.0807 2.85485 31.2201 2.69595C31.3594 2.53461 31.5538 2.41116 31.8031 2.3256C32.0524 2.24004 32.3116 2.19727 32.5805 2.19727C32.9056 2.19727 33.1623 2.26693 33.3505 2.40627C33.5412 2.54317 33.6646 2.69228 33.7208 2.85362C33.7551 2.95629 33.7722 3.19219 33.7722 3.56132V4.89236C33.7722 5.04881 33.7783 5.14782 33.7905 5.18938C33.8027 5.22849 33.8211 5.25782 33.8455 5.27738C33.87 5.29694 33.8981 5.30671 33.9298 5.30671C33.9934 5.30671 34.0582 5.26149 34.1242 5.17104L34.2342 5.25904C34.112 5.43994 33.9849 5.57195 33.8528 5.65506C33.7233 5.73573 33.5754 5.77606 33.4092 5.77606C33.2136 5.77606 33.0608 5.73084 32.9508 5.64039C32.8408 5.5475 32.7736 5.40816 32.7491 5.22238ZM32.7491 4.9547V3.80699C32.4534 3.98055 32.2333 4.16634 32.0891 4.36435C31.9938 4.49635 31.9461 4.62958 31.9461 4.76403C31.9461 4.87648 31.9864 4.97548 32.0671 5.06104C32.1282 5.12704 32.2138 5.16004 32.3238 5.16004C32.446 5.16004 32.5878 5.09159 32.7491 4.9547Z" fill="black"/>
<path d="M27.0911 4.03422L28.4404 0.756104H30.4645V0.891775H30.3032C30.1565 0.891775 30.0392 0.917443 29.9512 0.968778C29.89 1.003 29.8412 1.06045 29.8045 1.14112C29.7776 1.19979 29.7642 1.35257 29.7642 1.59947V4.87759C29.7642 5.13182 29.7776 5.29072 29.8045 5.35427C29.8314 5.41783 29.8864 5.47406 29.9695 5.52295C30.0526 5.56939 30.1638 5.59262 30.3032 5.59262H30.4645V5.72829H27.8684V5.59262H28.0298C28.1764 5.59262 28.2938 5.56695 28.3818 5.51561C28.4429 5.48139 28.4918 5.42272 28.5284 5.33961C28.5553 5.28094 28.5688 5.12693 28.5688 4.87759V1.19245L26.662 5.72829H26.574L24.638 1.22545V4.72725C24.638 4.9717 24.6441 5.12204 24.6563 5.17827C24.6881 5.30049 24.7565 5.40072 24.8616 5.47894C24.9692 5.55472 25.1367 5.59262 25.364 5.59262V5.72829H23.6626V5.59262H23.7139C23.8239 5.59506 23.9266 5.57795 24.0219 5.54128C24.1173 5.50217 24.1894 5.45083 24.2383 5.38727C24.2872 5.32372 24.3251 5.23449 24.352 5.1196C24.3568 5.09271 24.3593 4.96804 24.3593 4.74558V1.59947C24.3593 1.34768 24.3458 1.19123 24.319 1.13012C24.2921 1.06656 24.2371 1.01156 24.1539 0.965111C24.0708 0.916221 23.9596 0.891775 23.8203 0.891775H23.6626V0.756104H25.694L27.0911 4.03422Z" fill="black"/>
<path d="M22.5005 0.638672C22.6593 0.638672 22.7938 0.694896 22.9038 0.807345C23.0138 0.917349 23.0688 1.05058 23.0688 1.20703C23.0688 1.36348 23.0126 1.4967 22.9001 1.60671C22.7901 1.71671 22.6569 1.77171 22.5005 1.77171C22.344 1.77171 22.2108 1.71671 22.1008 1.60671C21.9908 1.4967 21.9358 1.36348 21.9358 1.20703C21.9358 1.05058 21.9908 0.917349 22.1008 0.807345C22.2108 0.694896 22.344 0.638672 22.5005 0.638672ZM23.0138 2.29973V5.01683C23.0138 5.25884 23.0419 5.41407 23.0981 5.48252C23.1544 5.54852 23.2644 5.58641 23.4282 5.59619V5.72819H21.5764V5.59619C21.728 5.5913 21.8404 5.5473 21.9138 5.46418C21.9627 5.40796 21.9871 5.25884 21.9871 5.01683V3.01476C21.9871 2.77275 21.959 2.61874 21.9028 2.55274C21.8465 2.4843 21.7378 2.44518 21.5764 2.4354V2.29973H23.0138Z" fill="black"/>
<path d="M18.8958 0.756104V2.73984C19.0841 2.54184 19.2564 2.4025 19.4128 2.32183C19.5693 2.23871 19.7319 2.19716 19.9005 2.19716C20.1157 2.19716 20.299 2.25827 20.4506 2.3805C20.6046 2.50272 20.706 2.64695 20.7549 2.81318C20.8062 2.97696 20.8319 3.25442 20.8319 3.64554V4.98393C20.8319 5.24549 20.8563 5.40928 20.9052 5.47528C20.9541 5.53884 21.0531 5.57917 21.2022 5.59628V5.72829H19.4642V5.59628C19.5864 5.57917 19.6781 5.53028 19.7392 5.44961C19.7832 5.38605 19.8052 5.23082 19.8052 4.98393V3.45487C19.8052 3.1713 19.7942 2.99407 19.7722 2.92318C19.7502 2.84985 19.7123 2.79362 19.6585 2.75451C19.6072 2.71295 19.5485 2.69217 19.4825 2.69217C19.3847 2.69217 19.2894 2.7264 19.1965 2.79485C19.1036 2.86085 19.0034 2.97819 18.8958 3.14686V4.98393C18.8958 5.22838 18.9142 5.38116 18.9508 5.44228C18.9973 5.52539 19.0926 5.57673 19.2368 5.59628V5.72829H17.4988V5.59628C17.643 5.58161 17.7457 5.53517 17.8068 5.45694C17.8483 5.40316 17.8691 5.24549 17.8691 4.98393V1.50046C17.8691 1.24134 17.8447 1.08 17.7958 1.01645C17.7493 0.952889 17.6503 0.911331 17.4988 0.891775V0.756104H18.8958Z" fill="black"/>
<path d="M16.9562 4.8447L17.0698 4.9327C16.9085 5.23582 16.7068 5.46194 16.4648 5.61106C16.2253 5.75773 15.9698 5.83107 15.6985 5.83107C15.2413 5.83107 14.8759 5.65873 14.6021 5.31405C14.3283 4.96937 14.1914 4.55502 14.1914 4.071C14.1914 3.6041 14.3161 3.19341 14.5654 2.83896C14.8661 2.41116 15.2804 2.19727 15.8085 2.19727C16.1629 2.19727 16.444 2.28649 16.6518 2.46494C16.8621 2.64339 16.9672 2.84262 16.9672 3.06263C16.9672 3.20197 16.9244 3.3132 16.8388 3.39631C16.7557 3.47942 16.6457 3.52098 16.5088 3.52098C16.3646 3.52098 16.2448 3.47331 16.1495 3.37798C16.0566 3.28264 15.9991 3.11274 15.9771 2.86829C15.9625 2.71428 15.927 2.60673 15.8708 2.54561C15.8146 2.4845 15.7486 2.45394 15.6728 2.45394C15.5555 2.45394 15.4552 2.51628 15.3721 2.64095C15.245 2.82918 15.1814 3.11763 15.1814 3.50631C15.1814 3.82899 15.2328 4.13823 15.3354 4.43401C15.4381 4.72736 15.5787 4.94614 15.7571 5.09037C15.8916 5.19549 16.0505 5.24804 16.2338 5.24804C16.3536 5.24804 16.4673 5.21993 16.5748 5.16371C16.6824 5.10748 16.8095 5.00115 16.9562 4.8447Z" fill="black"/>
<path d="M11.379 2.29994V2.74362C11.555 2.55295 11.7237 2.41483 11.885 2.32927C12.0463 2.24127 12.2199 2.19727 12.4057 2.19727C12.6281 2.19727 12.8127 2.2596 12.9594 2.38427C13.106 2.5065 13.2038 2.65928 13.2527 2.84262C13.2918 2.98196 13.3114 3.24964 13.3114 3.64565V4.98037C13.3114 5.24438 13.3346 5.40938 13.3811 5.47539C13.4299 5.53894 13.5302 5.57928 13.6817 5.59639V5.7284H11.9473V5.59639C12.0769 5.57928 12.1698 5.5255 12.226 5.43505C12.2651 5.37394 12.2847 5.22238 12.2847 4.98037V3.45498C12.2847 3.17386 12.2737 2.99663 12.2517 2.92329C12.2297 2.84996 12.1918 2.79373 12.138 2.75462C12.0867 2.71306 12.0292 2.69228 11.9657 2.69228C11.7554 2.69228 11.5599 2.84262 11.379 3.1433V4.98037C11.379 5.23704 11.4022 5.39961 11.4487 5.46805C11.4975 5.5365 11.5868 5.57928 11.7163 5.59639V5.7284H9.98193V5.59639C10.1262 5.58172 10.2288 5.53528 10.2899 5.45705C10.3315 5.40327 10.3523 5.24438 10.3523 4.98037V3.0443C10.3523 2.78518 10.3278 2.62384 10.2789 2.56028C10.2325 2.49672 10.1335 2.45516 9.98193 2.43561V2.29994H11.379Z" fill="black"/>
<path d="M8.11535 5.22238C7.69733 5.5915 7.3221 5.77606 6.98964 5.77606C6.79408 5.77606 6.63152 5.71251 6.50196 5.58539C6.3724 5.45583 6.30762 5.29449 6.30762 5.10137C6.30762 4.83981 6.42007 4.60513 6.64496 4.39735C6.86986 4.18712 7.35999 3.90844 8.11535 3.56132V3.21664C8.11535 2.95752 8.10068 2.79495 8.07135 2.72895C8.04446 2.6605 7.9919 2.60184 7.91368 2.55295C7.83545 2.50161 7.74745 2.47594 7.64967 2.47594C7.49077 2.47594 7.35999 2.51139 7.25732 2.58228C7.19376 2.62628 7.16198 2.67762 7.16198 2.73629C7.16198 2.78762 7.19621 2.85118 7.26465 2.92696C7.35754 3.03207 7.40399 3.13352 7.40399 3.2313C7.40399 3.35109 7.35877 3.45376 7.26832 3.53931C7.18032 3.62243 7.0642 3.66399 6.91997 3.66399C6.76597 3.66399 6.63641 3.61754 6.53129 3.52465C6.42862 3.43176 6.37729 3.32297 6.37729 3.1983C6.37729 3.0223 6.44696 2.85485 6.58629 2.69595C6.72563 2.53461 6.91997 2.41116 7.16932 2.3256C7.41866 2.24004 7.67778 2.19727 7.94668 2.19727C8.2718 2.19727 8.52848 2.26693 8.71671 2.40627C8.90738 2.54317 9.03083 2.69228 9.08705 2.85362C9.12128 2.95629 9.13839 3.19219 9.13839 3.56132V4.89236C9.13839 5.04881 9.1445 5.14782 9.15672 5.18938C9.16894 5.22849 9.18728 5.25782 9.21172 5.27738C9.23617 5.29694 9.26428 5.30671 9.29606 5.30671C9.35962 5.30671 9.4244 5.26149 9.4904 5.17104L9.6004 5.25904C9.47818 5.43994 9.35106 5.57195 9.21906 5.65506C9.0895 5.73573 8.9416 5.77606 8.77537 5.77606C8.57981 5.77606 8.42703 5.73084 8.31702 5.64039C8.20702 5.5475 8.1398 5.40816 8.11535 5.22238ZM8.11535 4.9547V3.80699C7.81956 3.98055 7.59955 4.16634 7.45533 4.36435C7.35999 4.49635 7.31232 4.62958 7.31232 4.76403C7.31232 4.87648 7.35266 4.97548 7.43333 5.06104C7.49444 5.12704 7.58 5.16004 7.69 5.16004C7.81223 5.16004 7.95401 5.09159 8.11535 4.9547Z" fill="black"/>
<path d="M2.53826 3.4622V4.85559C2.53826 5.12449 2.55415 5.29438 2.58593 5.36527C2.62015 5.43372 2.67882 5.48872 2.76194 5.53028C2.84505 5.57184 3.00028 5.59262 3.22762 5.59262V5.72829H0.682861V5.59262C0.912648 5.59262 1.06788 5.57184 1.14855 5.53028C1.23166 5.48628 1.28911 5.43005 1.32088 5.36161C1.35511 5.29316 1.37222 5.12449 1.37222 4.85559V1.6288C1.37222 1.3599 1.35511 1.19123 1.32088 1.12278C1.28911 1.05189 1.23166 0.995668 1.14855 0.954111C1.06543 0.912554 0.910203 0.891775 0.682861 0.891775V0.756104H2.99295C3.5943 0.756104 4.03432 0.797661 4.31299 0.880775C4.59167 0.963889 4.81901 1.11789 4.99502 1.34279C5.17103 1.56524 5.25903 1.82681 5.25903 2.12749C5.25903 2.49417 5.12702 2.79729 4.86302 3.03685C4.69434 3.18842 4.45844 3.30209 4.15532 3.37787L5.3507 5.06093C5.50715 5.27849 5.61838 5.41416 5.68438 5.46794C5.7846 5.54372 5.90072 5.58528 6.03272 5.59262V5.72829H4.467L2.86461 3.4622H2.53826ZM2.53826 1.02378V3.20186H2.74727C3.08706 3.20186 3.34129 3.1713 3.50997 3.11019C3.67864 3.04663 3.81064 2.93418 3.90598 2.77284C4.00376 2.60906 4.05265 2.39639 4.05265 2.13482C4.05265 1.75592 3.96343 1.47602 3.78498 1.29512C3.60897 1.11423 3.32418 1.02378 2.93061 1.02378H2.53826Z" fill="black"/>
<path d="M37.9016 6.83081L37.9661 9.47925H37.7258C37.6125 8.81519 37.3333 8.28198 36.8879 7.87964C36.4465 7.47339 35.968 7.27026 35.4524 7.27026C35.054 7.27026 34.7375 7.37769 34.5032 7.59253C34.2727 7.80347 34.1575 8.04761 34.1575 8.32495C34.1575 8.50073 34.1985 8.65698 34.2805 8.7937C34.3938 8.97729 34.5754 9.15894 34.8254 9.33862C35.009 9.46753 35.4329 9.69604 36.0969 10.0242C37.0266 10.4812 37.6536 10.9128 37.9778 11.3191C38.2981 11.7253 38.4583 12.1902 38.4583 12.7136C38.4583 13.3777 38.1985 13.95 37.679 14.4304C37.1633 14.907 36.5071 15.1453 35.7102 15.1453C35.4602 15.1453 35.2239 15.1199 35.0012 15.0691C34.7786 15.0183 34.4993 14.9226 34.1633 14.782C33.9758 14.7039 33.8215 14.6648 33.7004 14.6648C33.5989 14.6648 33.4915 14.7039 33.3782 14.782C33.2649 14.8601 33.1731 14.9792 33.1028 15.1394H32.886V12.1394H33.1028C33.2747 12.9832 33.6047 13.6277 34.093 14.073C34.5852 14.5144 35.1145 14.7351 35.6809 14.7351C36.1184 14.7351 36.4661 14.616 36.7239 14.3777C36.9856 14.1394 37.1165 13.8621 37.1165 13.5457C37.1165 13.3582 37.0657 13.1765 36.9641 13.0007C36.8665 12.825 36.7161 12.6589 36.5129 12.5027C36.3098 12.3425 35.9504 12.1355 35.4348 11.8816C34.7122 11.5261 34.1926 11.2234 33.8762 10.9734C33.5598 10.7234 33.3157 10.4441 33.1438 10.1355C32.9758 9.8269 32.8918 9.48706 32.8918 9.11597C32.8918 8.48315 33.1243 7.94409 33.5891 7.49878C34.054 7.05347 34.6399 6.83081 35.3469 6.83081C35.6047 6.83081 35.8547 6.86206 36.0969 6.92456C36.2805 6.97144 36.5032 7.05933 36.7649 7.18823C37.0305 7.31323 37.2161 7.37573 37.3215 7.37573C37.4231 7.37573 37.5032 7.34448 37.5618 7.28198C37.6204 7.21948 37.675 7.06909 37.7258 6.83081H37.9016Z" fill="black"/>
<path d="M27.5305 7.46948V10.7039H27.6887C28.1926 10.7039 28.5579 10.5457 28.7844 10.2292C29.011 9.91284 29.1555 9.44604 29.218 8.82886H29.4407V12.989H29.218C29.1711 12.5359 29.0715 12.1648 28.9192 11.8757C28.7708 11.5867 28.5969 11.3933 28.3977 11.2957C28.1985 11.1941 27.9094 11.1433 27.5305 11.1433V13.3816C27.5305 13.8191 27.5481 14.0867 27.5833 14.1843C27.6223 14.282 27.6926 14.3621 27.7942 14.4246C27.8958 14.4871 28.0598 14.5183 28.2864 14.5183H28.761C29.5032 14.5183 30.0969 14.3464 30.5422 14.0027C30.9915 13.6589 31.3137 13.1355 31.509 12.4324H31.7258L31.3684 14.9578H24.5012V14.741H24.7649C24.9954 14.741 25.1809 14.7 25.3215 14.6179C25.4231 14.5632 25.5012 14.4695 25.5559 14.3367C25.5989 14.2429 25.6204 13.9968 25.6204 13.5984V8.37183C25.6204 8.01245 25.6106 7.79175 25.5911 7.70972C25.552 7.573 25.4797 7.46753 25.3743 7.39331C25.2258 7.28394 25.0227 7.22925 24.7649 7.22925H24.5012V7.01245H31.1516V9.36206H30.929C30.8157 8.78784 30.6555 8.37573 30.4485 8.12573C30.2454 7.87573 29.9563 7.69214 29.5813 7.57495C29.3625 7.50464 28.9524 7.46948 28.3508 7.46948H27.5305Z" fill="black"/>
<path d="M18.6477 12.2507L20.804 7.01245H24.0383V7.22925H23.7805C23.5461 7.22925 23.3586 7.27026 23.218 7.35229C23.1204 7.40698 23.0422 7.49878 22.9836 7.62769C22.9407 7.72144 22.9192 7.96558 22.9192 8.36011V13.5984C22.9192 14.0046 22.9407 14.2585 22.9836 14.3601C23.0266 14.4617 23.1145 14.5515 23.2473 14.6296C23.3801 14.7039 23.5579 14.741 23.7805 14.741H24.0383V14.9578H19.8899V14.741H20.1477C20.3821 14.741 20.5696 14.7 20.7102 14.6179C20.8079 14.5632 20.886 14.4695 20.9446 14.3367C20.9875 14.2429 21.009 13.9968 21.009 13.5984V7.70972L17.9622 14.9578H17.8215L14.7278 7.76245V13.3582C14.7278 13.7488 14.7375 13.989 14.7571 14.0789C14.8079 14.2742 14.9172 14.4343 15.0852 14.5593C15.2571 14.6804 15.5247 14.741 15.8879 14.741V14.9578H13.1692V14.741H13.2512C13.427 14.7449 13.5911 14.7175 13.7434 14.6589C13.8958 14.5964 14.011 14.5144 14.0891 14.4128C14.1672 14.3113 14.2278 14.1687 14.2708 13.9851C14.2786 13.9421 14.2825 13.7429 14.2825 13.3875V8.36011C14.2825 7.95776 14.261 7.70776 14.218 7.61011C14.175 7.50854 14.0872 7.42065 13.9543 7.34644C13.8215 7.26831 13.6438 7.22925 13.4211 7.22925H13.1692V7.01245H16.4153L18.6477 12.2507Z" fill="black"/>
<path d="M12.6477 14.741V14.9578H8.49341V14.741H8.75708C8.98755 14.741 9.1731 14.7 9.31372 14.6179C9.41528 14.5632 9.49341 14.4695 9.5481 14.3367C9.59106 14.2429 9.61255 13.9968 9.61255 13.5984V8.37183C9.61255 7.96558 9.59106 7.71167 9.5481 7.61011C9.50513 7.50854 9.41724 7.42065 9.28442 7.34644C9.15552 7.26831 8.97974 7.22925 8.75708 7.22925H8.49341V7.01245H12.6477V7.22925H12.384C12.1536 7.22925 11.968 7.27026 11.8274 7.35229C11.7258 7.40698 11.6458 7.50073 11.5872 7.63354C11.5442 7.72729 11.5227 7.97339 11.5227 8.37183V13.5984C11.5227 14.0046 11.5442 14.2585 11.5872 14.3601C11.634 14.4617 11.7219 14.5515 11.8508 14.6296C11.9836 14.7039 12.1614 14.741 12.384 14.741H12.6477Z" fill="black"/>
<path d="M7.81958 7.01245V9.16284H7.60864C7.48364 8.66675 7.34497 8.31128 7.19263 8.09644C7.04028 7.87769 6.8313 7.70386 6.56567 7.57495C6.41724 7.50464 6.15747 7.46948 5.78638 7.46948H5.19458V13.5984C5.19458 14.0046 5.21606 14.2585 5.25903 14.3601C5.30591 14.4617 5.3938 14.5515 5.52271 14.6296C5.65552 14.7039 5.83521 14.741 6.06177 14.741H6.32544V14.9578H2.16528V14.741H2.42896C2.65942 14.741 2.84497 14.7 2.9856 14.6179C3.08716 14.5632 3.16724 14.4695 3.22583 14.3367C3.2688 14.2429 3.29028 13.9968 3.29028 13.5984V7.46948H2.71606C2.18091 7.46948 1.79224 7.58276 1.55005 7.80933C1.21021 8.12573 0.995361 8.5769 0.905518 9.16284H0.682861V7.01245H7.81958Z" fill="black"/>
</svg>
