<svg width="1008" height="309" viewBox="0 0 1008 309" fill="none" xmlns="http://www.w3.org/2000/svg">
<path d="M7.54154 41.2916H32.7895C37.2055 41.2916 41.2375 41.9956 44.8855 43.4036C48.5335 44.8116 51.6375 46.9236 54.1975 49.7396C56.7575 52.4916 58.7415 55.9796 60.1495 60.2036C61.5575 64.3636 62.2615 69.2276 62.2615 74.7956C62.2615 80.3636 61.5575 85.2596 60.1495 89.4836C58.7415 93.6436 56.7575 97.1316 54.1975 99.9476C51.6375 102.7 48.5335 104.78 44.8855 106.188C41.2375 107.596 37.2055 108.3 32.7895 108.3H7.54154V41.2916ZM32.7895 95.3396C37.1415 95.3396 40.5655 94.1236 43.0615 91.6916C45.5575 89.2596 46.8055 85.3556 46.8055 79.9796V69.6116C46.8055 64.2356 45.5575 60.3316 43.0615 57.8996C40.5655 55.4676 37.1415 54.2516 32.7895 54.2516H22.1335V95.3396H32.7895ZM94.735 109.452C90.895 109.452 87.471 108.844 84.463 107.628C81.455 106.348 78.895 104.588 76.783 102.348C74.735 100.044 73.167 97.2596 72.079 93.9956C71.055 90.7316 70.543 87.0836 70.543 83.0516C70.543 79.0836 71.055 75.4996 72.079 72.2996C73.103 69.0356 74.607 66.2516 76.591 63.9476C78.639 61.6436 81.135 59.8836 84.079 58.6676C87.023 57.3876 90.383 56.7476 94.159 56.7476C98.319 56.7476 101.871 57.4516 104.815 58.8596C107.823 60.2676 110.255 62.1556 112.111 64.5236C114.031 66.8916 115.407 69.6436 116.239 72.7796C117.135 75.8516 117.583 79.0836 117.583 82.4756V86.6996H85.231V87.4676C85.231 90.7956 86.127 93.4516 87.919 95.4356C89.711 97.3556 92.527 98.3156 96.367 98.3156C99.311 98.3156 101.711 97.7396 103.567 96.5876C105.423 95.3716 107.151 93.9316 108.751 92.2676L115.855 101.1C113.615 103.724 110.671 105.772 107.023 107.244C103.439 108.716 99.343 109.452 94.735 109.452ZM94.447 67.2116C91.567 67.2116 89.295 68.1716 87.631 70.0916C86.031 71.9476 85.231 74.4436 85.231 77.5796V78.3476H102.895V77.4836C102.895 74.4116 102.191 71.9476 100.783 70.0916C99.439 68.1716 97.327 67.2116 94.447 67.2116ZM144.705 109.452C139.841 109.452 135.745 108.684 132.417 107.148C129.089 105.548 126.113 103.308 123.489 100.428L131.841 91.9796C133.633 93.9636 135.617 95.5316 137.793 96.6836C139.969 97.8356 142.433 98.4116 145.185 98.4116C148.001 98.4116 149.953 97.9956 151.041 97.1636C152.129 96.2676 152.673 95.0836 152.673 93.6116C152.673 91.2436 150.977 89.8356 147.585 89.3876L142.113 88.7156C130.785 87.3076 125.121 82.1236 125.121 73.1636C125.121 70.7316 125.569 68.5236 126.465 66.5396C127.425 64.4916 128.737 62.7636 130.401 61.3556C132.129 59.8836 134.177 58.7636 136.545 57.9956C138.977 57.1636 141.697 56.7476 144.705 56.7476C147.329 56.7476 149.633 56.9396 151.617 57.3236C153.665 57.6436 155.457 58.1556 156.993 58.8596C158.593 59.4996 160.033 60.3316 161.313 61.3556C162.657 62.3156 163.969 63.4036 165.249 64.6196L157.089 72.9716C155.489 71.3716 153.665 70.1236 151.617 69.2276C149.633 68.2676 147.585 67.7876 145.473 67.7876C143.041 67.7876 141.313 68.1716 140.289 68.9396C139.265 69.7076 138.753 70.7316 138.753 72.0116C138.753 73.3556 139.105 74.4116 139.809 75.1796C140.577 75.8836 141.985 76.3956 144.033 76.7156L149.697 77.4836C160.769 78.9556 166.305 84.0116 166.305 92.6516C166.305 95.0836 165.793 97.3236 164.769 99.3716C163.745 101.42 162.273 103.212 160.353 104.748C158.497 106.22 156.225 107.372 153.537 108.204C150.913 109.036 147.969 109.452 144.705 109.452ZM183.096 52.5236C180.216 52.5236 178.104 51.8836 176.76 50.6036C175.48 49.2596 174.84 47.5636 174.84 45.5156V43.4036C174.84 41.3556 175.48 39.6916 176.76 38.4116C178.104 37.0676 180.216 36.3956 183.096 36.3956C185.976 36.3956 188.056 37.0676 189.336 38.4116C190.68 39.6916 191.352 41.3556 191.352 43.4036V45.5156C191.352 47.5636 190.68 49.2596 189.336 50.6036C188.056 51.8836 185.976 52.5236 183.096 52.5236ZM175.992 57.8996H190.2V108.3H175.992V57.8996ZM250.117 111.948C250.117 114.636 249.637 117.004 248.677 119.052C247.781 121.1 246.277 122.828 244.165 124.236C242.053 125.708 239.237 126.796 235.717 127.5C232.261 128.268 227.973 128.652 222.853 128.652C218.501 128.652 214.789 128.364 211.717 127.788C208.709 127.276 206.245 126.508 204.325 125.484C202.469 124.524 201.093 123.308 200.197 121.836C199.365 120.428 198.949 118.796 198.949 116.94C198.949 114.124 199.781 111.916 201.445 110.316C203.109 108.716 205.413 107.724 208.357 107.34V106.284C205.925 105.836 204.101 104.812 202.885 103.212C201.669 101.548 201.061 99.6276 201.061 97.4516C201.061 96.1076 201.317 94.9556 201.829 93.9956C202.405 92.9716 203.109 92.1076 203.941 91.4036C204.837 90.6356 205.861 90.0276 207.013 89.5796C208.165 89.1316 209.317 88.7796 210.469 88.5236V88.1396C207.397 86.7316 205.125 84.8116 203.653 82.3796C202.181 79.8836 201.445 77.0036 201.445 73.7396C201.445 68.6196 203.205 64.5236 206.725 61.4516C210.309 58.3156 215.749 56.7476 223.045 56.7476C226.373 56.7476 229.221 57.0676 231.589 57.7076V55.7876C231.589 53.0996 232.229 51.1796 233.509 50.0276C234.853 48.8116 236.741 48.2036 239.173 48.2036H247.141V58.7636H236.005V59.3396C238.949 60.7476 241.125 62.6996 242.533 65.1956C243.941 67.6276 244.645 70.4756 244.645 73.7396C244.645 78.7956 242.853 82.8596 239.269 85.9316C235.749 88.9396 230.341 90.4436 223.045 90.4436C219.781 90.4436 216.805 90.0916 214.117 89.3876C212.645 90.3476 211.909 91.6916 211.909 93.4196C211.909 94.6356 212.357 95.5956 213.253 96.2996C214.213 96.9396 215.781 97.2596 217.957 97.2596H232.549C238.693 97.2596 243.141 98.5396 245.893 101.1C248.709 103.66 250.117 107.276 250.117 111.948ZM236.773 113.868C236.773 112.396 236.197 111.276 235.045 110.508C233.893 109.74 231.877 109.356 228.997 109.356H211.717C211.077 109.996 210.597 110.7 210.277 111.468C210.021 112.3 209.893 113.1 209.893 113.868C209.893 115.724 210.693 117.068 212.293 117.9C213.893 118.796 216.613 119.244 220.453 119.244H226.213C230.053 119.244 232.773 118.796 234.373 117.9C235.973 117.068 236.773 115.724 236.773 113.868ZM223.045 81.1316C225.861 81.1316 227.941 80.5556 229.285 79.4036C230.693 78.1876 231.397 76.4596 231.397 74.2196V73.0676C231.397 70.8276 230.693 69.1316 229.285 67.9796C227.941 66.7636 225.861 66.1556 223.045 66.1556C220.229 66.1556 218.117 66.7636 216.709 67.9796C215.365 69.1316 214.693 70.8276 214.693 73.0676V74.2196C214.693 76.4596 215.365 78.1876 216.709 79.4036C218.117 80.5556 220.229 81.1316 223.045 81.1316ZM256.43 108.3V57.8996H270.638V66.4436H271.214C272.11 63.8196 273.678 61.5476 275.918 59.6276C278.158 57.7076 281.262 56.7476 285.23 56.7476C290.414 56.7476 294.318 58.4756 296.942 61.9316C299.63 65.3876 300.974 70.3156 300.974 76.7156V108.3H286.766V77.8676C286.766 74.6036 286.254 72.2036 285.23 70.6676C284.206 69.0676 282.382 68.2676 279.758 68.2676C278.606 68.2676 277.486 68.4276 276.398 68.7476C275.31 69.0036 274.318 69.4516 273.422 70.0916C272.59 70.7316 271.918 71.5316 271.406 72.4916C270.894 73.3876 270.638 74.4436 270.638 75.6596V108.3H256.43ZM334.641 109.452C330.801 109.452 327.377 108.844 324.369 107.628C321.361 106.348 318.801 104.588 316.689 102.348C314.641 100.044 313.073 97.2596 311.985 93.9956C310.961 90.7316 310.449 87.0836 310.449 83.0516C310.449 79.0836 310.961 75.4996 311.985 72.2996C313.009 69.0356 314.513 66.2516 316.497 63.9476C318.545 61.6436 321.041 59.8836 323.985 58.6676C326.929 57.3876 330.289 56.7476 334.065 56.7476C338.225 56.7476 341.777 57.4516 344.721 58.8596C347.729 60.2676 350.161 62.1556 352.017 64.5236C353.937 66.8916 355.313 69.6436 356.145 72.7796C357.041 75.8516 357.489 79.0836 357.489 82.4756V86.6996H325.137V87.4676C325.137 90.7956 326.033 93.4516 327.825 95.4356C329.617 97.3556 332.433 98.3156 336.273 98.3156C339.217 98.3156 341.617 97.7396 343.473 96.5876C345.329 95.3716 347.057 93.9316 348.657 92.2676L355.761 101.1C353.521 103.724 350.577 105.772 346.929 107.244C343.345 108.716 339.249 109.452 334.641 109.452ZM334.353 67.2116C331.473 67.2116 329.201 68.1716 327.537 70.0916C325.937 71.9476 325.137 74.4436 325.137 77.5796V78.3476H342.801V77.4836C342.801 74.4116 342.097 71.9476 340.689 70.0916C339.345 68.1716 337.233 67.2116 334.353 67.2116ZM367.524 108.3V57.8996H381.732V68.8436H382.212C382.468 67.4356 382.916 66.0916 383.556 64.8116C384.196 63.4676 385.028 62.2836 386.052 61.2596C387.14 60.2356 388.42 59.4356 389.892 58.8596C391.364 58.2196 393.092 57.8996 395.076 57.8996H397.572V71.1476H394.02C389.86 71.1476 386.756 71.6916 384.708 72.7796C382.724 73.8676 381.732 75.8836 381.732 78.8276V108.3H367.524Z" fill="black"/>
<path d="M494.994 187.81H516.594C525.618 187.81 532.306 190.69 536.658 196.45C541.01 202.21 543.186 210.498 543.186 221.314C543.186 232.13 541.01 240.418 536.658 246.178C532.306 251.938 525.618 254.818 516.594 254.818H494.994V187.81ZM515.634 243.49C519.922 243.49 523.058 242.114 525.042 239.362C527.026 236.61 528.018 232.61 528.018 227.362V215.17C528.018 209.986 527.026 206.018 525.042 203.266C523.058 200.514 519.922 199.138 515.634 199.138H509.202V243.49H515.634ZM576.557 255.97C568.237 255.97 561.933 253.666 557.645 249.058C553.357 244.45 551.213 238.178 551.213 230.242C551.213 226.21 551.757 222.594 552.845 219.394C553.997 216.13 555.597 213.378 557.645 211.138C559.757 208.834 562.285 207.106 565.229 205.954C568.237 204.738 571.597 204.13 575.309 204.13C579.021 204.13 582.349 204.738 585.293 205.954C588.237 207.106 590.733 208.77 592.781 210.946C594.829 213.122 596.397 215.778 597.485 218.914C598.637 221.986 599.213 225.442 599.213 229.282V233.506H565.325V234.37C565.325 237.57 566.317 240.162 568.301 242.146C570.285 244.066 573.197 245.026 577.037 245.026C579.981 245.026 582.509 244.482 584.621 243.394C586.733 242.242 588.557 240.738 590.093 238.882L597.773 247.234C595.853 249.602 593.165 251.65 589.709 253.378C586.253 255.106 581.869 255.97 576.557 255.97ZM575.405 214.306C572.333 214.306 569.869 215.266 568.013 217.186C566.221 219.042 565.325 221.57 565.325 224.77V225.538H585.293V224.77C585.293 221.506 584.397 218.946 582.605 217.09C580.877 215.234 578.477 214.306 575.405 214.306ZM624.327 254.818L606.567 205.282H621.543L627.975 226.498L632.679 243.01H633.447L638.151 226.498L644.583 205.282H658.983L641.223 254.818H624.327ZM691.682 255.97C683.362 255.97 677.058 253.666 672.77 249.058C668.482 244.45 666.338 238.178 666.338 230.242C666.338 226.21 666.882 222.594 667.97 219.394C669.122 216.13 670.722 213.378 672.77 211.138C674.882 208.834 677.41 207.106 680.354 205.954C683.362 204.738 686.722 204.13 690.434 204.13C694.146 204.13 697.474 204.738 700.418 205.954C703.362 207.106 705.858 208.77 707.906 210.946C709.954 213.122 711.522 215.778 712.61 218.914C713.762 221.986 714.338 225.442 714.338 229.282V233.506H680.45V234.37C680.45 237.57 681.442 240.162 683.426 242.146C685.41 244.066 688.322 245.026 692.162 245.026C695.106 245.026 697.634 244.482 699.746 243.394C701.858 242.242 703.682 240.738 705.218 238.882L712.898 247.234C710.978 249.602 708.29 251.65 704.834 253.378C701.378 255.106 696.994 255.97 691.682 255.97ZM690.53 214.306C687.458 214.306 684.994 215.266 683.138 217.186C681.346 219.042 680.45 221.57 680.45 224.77V225.538H700.418V224.77C700.418 221.506 699.522 218.946 697.73 217.09C696.002 215.234 693.602 214.306 690.53 214.306ZM725.628 243.778H740.796V194.818H725.628V183.778H755.004V243.778H770.172V254.818H725.628V243.778ZM805.463 255.97C801.623 255.97 798.167 255.394 795.095 254.242C792.023 253.026 789.399 251.298 787.223 249.058C785.111 246.818 783.479 244.098 782.327 240.898C781.175 237.698 780.599 234.082 780.599 230.05C780.599 226.018 781.175 222.402 782.327 219.202C783.479 216.002 785.111 213.282 787.223 211.042C789.399 208.802 792.023 207.106 795.095 205.954C798.167 204.738 801.623 204.13 805.463 204.13C809.303 204.13 812.759 204.738 815.831 205.954C818.903 207.106 821.495 208.802 823.607 211.042C825.783 213.282 827.447 216.002 828.599 219.202C829.751 222.402 830.327 226.018 830.327 230.05C830.327 234.082 829.751 237.698 828.599 240.898C827.447 244.098 825.783 246.818 823.607 249.058C821.495 251.298 818.903 253.026 815.831 254.242C812.759 255.394 809.303 255.97 805.463 255.97ZM805.463 245.41C808.663 245.41 811.159 244.418 812.951 242.434C814.743 240.45 815.639 237.634 815.639 233.986V226.114C815.639 222.466 814.743 219.65 812.951 217.666C811.159 215.682 808.663 214.69 805.463 214.69C802.263 214.69 799.767 215.682 797.975 217.666C796.183 219.65 795.287 222.466 795.287 226.114V233.986C795.287 237.634 796.183 240.45 797.975 242.434C799.767 244.418 802.263 245.41 805.463 245.41ZM839.889 205.282H854.097V214.306H854.769C855.985 211.362 857.745 208.93 860.049 207.01C862.353 205.09 865.489 204.13 869.457 204.13C872.209 204.13 874.705 204.642 876.945 205.666C879.249 206.69 881.201 208.258 882.801 210.37C884.465 212.482 885.745 215.17 886.641 218.434C887.601 221.698 888.081 225.57 888.081 230.05C888.081 234.53 887.601 238.402 886.641 241.666C885.745 244.93 884.465 247.618 882.801 249.73C881.201 251.842 879.249 253.41 876.945 254.434C874.705 255.458 872.209 255.97 869.457 255.97C865.489 255.97 862.353 255.042 860.049 253.186C857.745 251.266 855.985 248.802 854.769 245.794H854.097V274.018H839.889V205.282ZM863.313 244.93C866.513 244.93 868.977 243.97 870.705 242.05C872.433 240.066 873.297 237.346 873.297 233.89V226.21C873.297 222.754 872.433 220.066 870.705 218.146C868.977 216.162 866.513 215.17 863.313 215.17C860.817 215.17 858.641 215.778 856.785 216.994C854.993 218.21 854.097 220.13 854.097 222.754V237.346C854.097 239.97 854.993 241.89 856.785 243.106C858.641 244.322 860.817 244.93 863.313 244.93ZM921.932 255.97C913.612 255.97 907.308 253.666 903.02 249.058C898.732 244.45 896.588 238.178 896.588 230.242C896.588 226.21 897.132 222.594 898.22 219.394C899.372 216.13 900.972 213.378 903.02 211.138C905.132 208.834 907.66 207.106 910.604 205.954C913.612 204.738 916.972 204.13 920.684 204.13C924.396 204.13 927.724 204.738 930.668 205.954C933.612 207.106 936.108 208.77 938.156 210.946C940.204 213.122 941.772 215.778 942.86 218.914C944.012 221.986 944.588 225.442 944.588 229.282V233.506H910.7V234.37C910.7 237.57 911.692 240.162 913.676 242.146C915.66 244.066 918.572 245.026 922.412 245.026C925.356 245.026 927.884 244.482 929.996 243.394C932.108 242.242 933.932 240.738 935.468 238.882L943.148 247.234C941.228 249.602 938.54 251.65 935.084 253.378C931.628 255.106 927.244 255.97 921.932 255.97ZM920.78 214.306C917.708 214.306 915.244 215.266 913.388 217.186C911.596 219.042 910.7 221.57 910.7 224.77V225.538H930.668V224.77C930.668 221.506 929.772 218.946 927.98 217.09C926.252 215.234 923.852 214.306 920.78 214.306ZM956.454 243.778H967.878V216.322H956.454V205.282H982.086V219.298H982.758C983.206 217.506 983.814 215.778 984.582 214.114C985.414 212.386 986.438 210.882 987.654 209.602C988.934 208.258 990.47 207.202 992.262 206.434C994.054 205.666 996.166 205.282 998.598 205.282H1003.3V218.338H992.742C989.222 218.338 986.566 219.394 984.774 221.506C982.982 223.554 982.086 226.082 982.086 229.09V243.778H998.406V254.818H956.454V243.778Z" fill="black"/>
<path d="M584.75 9.29955L601.721 9.29955L310.66 300.36L294.349 299.7L584.75 9.29955Z" fill="black"/>
</svg>
