<svg width="212" height="64" viewBox="0 0 212 64" fill="none" xmlns="http://www.w3.org/2000/svg">
<path d="M26.203 56.388H9.88825C9.5147 56.388 9.21188 56.0852 9.21188 55.7117V55.2924C9.21188 55.0441 9.34797 54.8157 9.56638 54.6975L10.2049 54.3521C10.4175 54.237 10.5332 53.9993 10.4926 53.761L9.43315 47.5423C9.29655 46.7405 9.60481 45.9276 10.2387 45.418C15.9819 40.801 22.9157 37.9057 30.2368 37.0675L47.1673 35.1292C48.4428 34.9831 49.7305 34.9778 51.0071 35.1133C51.116 35.1249 51.2109 35.0395 51.2109 34.93V34.8971C51.2109 34.746 51.2905 34.6062 51.4203 34.5291L58.8562 30.1133C62.7398 27.8069 67.1885 26.6263 71.7048 26.7033L78.8427 26.8252C79.3742 26.8342 79.8618 26.5312 80.0889 26.0505L91.4855 1.93066C91.9096 1.03329 91.255 0 90.2625 0H66.4824C63.9056 0 61.4133 0.919456 59.4539 2.59298L49.0863 11.448L38.2486 21.5809C38.1498 21.6733 38.0195 21.7247 37.8842 21.7247H37.1492C36.9659 21.7247 36.8172 21.5761 36.8172 21.3927C36.8172 21.2994 36.7403 21.2244 36.6469 21.2268L17.5919 21.7247L7.90034 22.7909C7.2729 22.86 6.71332 23.2171 6.38642 23.7571L5.93485 24.503C5.8123 24.7054 5.59287 24.8291 5.35624 24.8291H4.99294C4.80732 24.8291 4.62985 24.9054 4.50213 25.0401L3.68227 25.9048C2.96742 26.6587 2.56894 27.6581 2.56894 28.697V50.369C2.56894 51.0784 1.99387 51.6534 1.28447 51.6534C0.575078 51.6534 0 52.2285 0 52.9379V60.6181C0 62.4859 1.51411 64 3.38187 64H27.5747L27.3286 63.268C26.5832 61.0508 26.203 58.7272 26.203 56.388Z" fill="black"/>
<path d="M147.03 63.9997C145.779 63.9997 144.64 63.7912 143.613 63.3741C142.603 62.9571 141.753 62.3636 141.063 61.5936C140.373 60.8236 139.9 59.9254 139.643 58.8987L142.795 57.6716C143.116 58.618 143.654 59.3719 144.407 59.9334C145.161 60.4788 146.012 60.7515 146.958 60.7515C147.503 60.7515 147.977 60.6632 148.378 60.4868C148.795 60.2943 149.115 60.0376 149.34 59.7168C149.581 59.396 149.701 59.0351 149.701 58.6341C149.701 58.2491 149.581 57.9202 149.34 57.6475C149.099 57.3749 148.706 57.1503 148.161 56.9738L144.985 55.8911C143.67 55.4419 142.691 54.8244 142.049 54.0384C141.424 53.2363 141.111 52.2578 141.111 51.1029C141.111 50.0442 141.392 49.0978 141.953 48.2636C142.531 47.4135 143.301 46.7398 144.263 46.2425C145.242 45.7452 146.34 45.4966 147.559 45.4966C148.698 45.4966 149.725 45.6891 150.639 46.0741C151.57 46.443 152.348 46.9723 152.973 47.6621C153.599 48.3519 154.032 49.1699 154.273 50.1164L151.145 51.3435C150.888 50.5254 150.431 49.8918 149.773 49.4426C149.131 48.9775 148.362 48.7449 147.463 48.7449C146.934 48.7449 146.469 48.8331 146.068 49.0095C145.683 49.1699 145.378 49.4025 145.153 49.7073C144.945 50.0121 144.841 50.373 144.841 50.7901C144.841 51.2232 144.969 51.5841 145.226 51.8728C145.482 52.1616 145.883 52.4022 146.429 52.5947L149.533 53.6774C150.848 54.1266 151.826 54.7361 152.468 55.5061C153.126 56.2761 153.455 57.2305 153.455 58.3694C153.455 59.4281 153.158 60.3825 152.564 61.2327C151.987 62.0829 151.209 62.7566 150.23 63.2538C149.268 63.7511 148.201 63.9997 147.03 63.9997Z" fill="black"/>
<path d="M123.457 63.7113L125.959 45.7856H132.576C133.731 45.7856 134.741 45.9942 135.608 46.4112C136.474 46.8123 137.147 47.4138 137.629 48.2158C138.126 49.0179 138.375 50.0124 138.375 51.1994C138.375 52.0496 138.222 52.8356 137.917 53.5575C137.629 54.2793 137.204 54.9049 136.642 55.4342C136.097 55.9636 135.431 56.3806 134.645 56.6854L137.653 63.7113H133.683L130.338 55.723L132.576 57.2148H128.1L127.186 63.7113H123.457ZM128.558 53.9665H131.758C132.319 53.9665 132.808 53.8462 133.225 53.6056C133.659 53.365 133.995 53.0361 134.236 52.6191C134.493 52.202 134.621 51.7288 134.621 51.1994C134.621 50.5418 134.404 50.0204 133.971 49.6355C133.554 49.2344 132.985 49.0339 132.263 49.0339H129.231L128.558 53.9665Z" fill="black"/>
<path d="M104.51 63.7113L113.076 45.7856H118.033L121.594 63.7113H117.672L116.998 60.054H110.454L108.745 63.7113H104.51ZM111.945 56.8057H116.397L114.857 48.3843L115.843 48.5046L111.945 56.8057Z" fill="black"/>
<path d="M96.1349 63.9997C94.8997 63.9997 93.7608 63.7912 92.7182 63.3741C91.6755 62.941 90.7692 62.3395 89.9993 61.5695C89.2453 60.7835 88.6598 59.8612 88.2428 58.8025C87.8257 57.7438 87.6172 56.5808 87.6172 55.3136C87.6172 53.9662 87.8498 52.6989 88.315 51.5119C88.7962 50.3249 89.4699 49.2822 90.3361 48.3839C91.2023 47.4857 92.2209 46.7799 93.3919 46.2665C94.5629 45.7532 95.8462 45.4966 97.2417 45.4966C98.5571 45.4966 99.72 45.7212 100.731 46.1703C101.757 46.6034 102.607 47.1889 103.281 47.9268C103.955 48.6486 104.42 49.4507 104.677 50.3329L101.284 51.8247C101.027 50.9585 100.546 50.2527 99.8403 49.7073C99.1345 49.1459 98.2282 48.8652 97.1214 48.8652C96.2873 48.8652 95.5173 49.0256 94.8115 49.3464C94.1218 49.6672 93.5122 50.1244 92.9829 50.7179C92.4696 51.2954 92.0685 51.9771 91.7798 52.7631C91.4911 53.5491 91.3467 54.4073 91.3467 55.3377C91.3467 56.4124 91.5392 57.3508 91.9242 58.1528C92.3252 58.9388 92.8786 59.5484 93.5844 59.9815C94.3062 60.4146 95.1484 60.6312 96.1108 60.6312C97.2658 60.6312 98.2523 60.3424 99.0704 59.7649C99.8885 59.1714 100.482 58.4416 100.851 57.5754L104.075 59.2597C103.706 60.1419 103.137 60.9439 102.367 61.6658C101.613 62.3716 100.707 62.941 99.6478 63.3741C98.5891 63.7912 97.4182 63.9997 96.1349 63.9997Z" fill="black"/>
<path d="M196.205 43.661L198.707 25.7354H205.324C206.479 25.7354 207.489 25.9439 208.356 26.3609C209.222 26.762 209.895 27.3635 210.377 28.1655C210.874 28.9676 211.123 29.9621 211.123 31.1491C211.123 31.9993 210.97 32.7853 210.665 33.5072C210.377 34.229 209.952 34.8546 209.39 35.3839C208.845 35.9133 208.179 36.3304 207.393 36.6351L210.401 43.661H206.431L203.086 35.6727L205.324 37.1645H200.848L199.934 43.661H196.205ZM201.306 33.9162H204.506C205.067 33.9162 205.556 33.7959 205.973 33.5553C206.407 33.3147 206.743 32.9858 206.984 32.5688C207.241 32.1517 207.369 31.6785 207.369 31.1491C207.369 30.4915 207.152 29.9701 206.719 29.5852C206.302 29.1841 205.733 28.9836 205.011 28.9836H201.979L201.306 33.9162Z" fill="black"/>
<path d="M177.259 43.661L185.824 25.7354H190.781L194.342 43.661H190.42L189.746 40.0037H183.202L181.493 43.661H177.259ZM184.693 36.7554H189.145L187.605 28.334L188.591 28.4543L184.693 36.7554Z" fill="black"/>
<path d="M165.423 43.661L167.926 25.7354H171.655L169.61 40.4128H177.189L176.732 43.661H165.423Z" fill="black"/>
<path d="M155.423 43.9498C153.979 43.9498 152.72 43.645 151.645 43.0354C150.586 42.4259 149.792 41.5998 149.263 40.5571C148.734 39.4984 148.557 38.3114 148.734 36.996L150.298 25.7354H154.027L152.463 36.9479C152.367 37.6537 152.431 38.2873 152.656 38.8488C152.896 39.3942 153.273 39.8192 153.787 40.124C154.3 40.4288 154.909 40.5812 155.615 40.5812C156.305 40.5812 156.939 40.4288 157.516 40.124C158.094 39.8192 158.575 39.3781 158.96 38.8006C159.345 38.2232 159.593 37.5414 159.706 36.7554L161.246 25.7354H164.975L163.363 37.1885C163.186 38.5039 162.729 39.6749 161.991 40.7015C161.254 41.7121 160.315 42.5061 159.176 43.0836C158.053 43.661 156.802 43.9498 155.423 43.9498Z" fill="black"/>
<path d="M138.313 43.949C137.078 43.949 135.939 43.7404 134.896 43.3234C133.854 42.8903 132.947 42.2887 132.177 41.5188C131.423 40.7328 130.838 39.8104 130.421 38.7517C130.004 37.693 129.795 36.53 129.795 35.2628C129.795 33.9154 130.028 32.6482 130.493 31.4611C130.974 30.2741 131.648 29.2314 132.514 28.3332C133.38 27.4349 134.399 26.7291 135.57 26.2158C136.741 25.7025 138.024 25.4458 139.42 25.4458C140.735 25.4458 141.898 25.6704 142.909 26.1195C143.935 26.5526 144.785 27.1381 145.459 27.876C146.133 28.5978 146.598 29.3999 146.855 30.2821L143.462 31.7739C143.205 30.9077 142.724 30.2019 142.018 29.6565C141.313 29.0951 140.406 28.8144 139.299 28.8144C138.465 28.8144 137.695 28.9748 136.989 29.2956C136.3 29.6164 135.69 30.0736 135.161 30.6671C134.648 31.2446 134.247 31.9263 133.958 32.7123C133.669 33.4983 133.525 34.3565 133.525 35.2869C133.525 36.3616 133.717 37.3 134.102 38.1021C134.503 38.8881 135.057 39.4976 135.762 39.9307C136.484 40.3638 137.326 40.5804 138.289 40.5804C139.444 40.5804 140.43 40.2916 141.248 39.7142C142.066 39.1206 142.66 38.3908 143.029 37.5246L146.253 39.2089C145.884 40.0911 145.315 40.8932 144.545 41.615C143.791 42.3208 142.885 42.8903 141.826 43.3234C140.767 43.7404 139.596 43.949 138.313 43.949Z" fill="black"/>
<path d="M112.742 43.661L115.245 25.7354H121.862C123.017 25.7354 124.027 25.9439 124.893 26.3609C125.76 26.762 126.433 27.3635 126.915 28.1655C127.412 28.9676 127.66 29.9621 127.66 31.1491C127.66 31.9993 127.508 32.7853 127.203 33.5072C126.915 34.229 126.489 34.8546 125.928 35.3839C125.383 35.9133 124.717 36.3304 123.931 36.6351L126.939 43.661H122.968L119.624 35.6727L121.862 37.1645H117.386L116.472 43.661H112.742ZM117.843 33.9162H121.044C121.605 33.9162 122.094 33.7959 122.511 33.5553C122.944 33.3147 123.281 32.9858 123.522 32.5688C123.779 32.1517 123.907 31.6785 123.907 31.1491C123.907 30.4915 123.69 29.9701 123.257 29.5852C122.84 29.1841 122.271 28.9836 121.549 28.9836H118.517L117.843 33.9162Z" fill="black"/>
<path d="M105.833 43.661L108.336 25.7354H112.065L109.563 43.661H105.833Z" fill="black"/>
<path d="M96.1349 43.949C94.8997 43.949 93.7608 43.7404 92.7182 43.3234C91.6755 42.8903 90.7692 42.2887 89.9993 41.5188C89.2453 40.7328 88.6598 39.8104 88.2428 38.7517C87.8257 37.693 87.6172 36.53 87.6172 35.2628C87.6172 33.9154 87.8498 32.6482 88.315 31.4611C88.7962 30.2741 89.4699 29.2314 90.3361 28.3332C91.2023 27.4349 92.2209 26.7291 93.3919 26.2158C94.5629 25.7025 95.8462 25.4458 97.2417 25.4458C98.5571 25.4458 99.72 25.6704 100.731 26.1195C101.757 26.5526 102.607 27.1381 103.281 27.876C103.955 28.5978 104.42 29.3999 104.677 30.2821L101.284 31.7739C101.027 30.9077 100.546 30.2019 99.8403 29.6565C99.1345 29.0951 98.2282 28.8144 97.1214 28.8144C96.2873 28.8144 95.5173 28.9748 94.8115 29.2956C94.1218 29.6164 93.5122 30.0736 92.9829 30.6671C92.4696 31.2446 92.0685 31.9263 91.7798 32.7123C91.4911 33.4983 91.3467 34.3565 91.3467 35.2869C91.3467 36.3616 91.5392 37.3 91.9242 38.1021C92.3252 38.8881 92.8786 39.4976 93.5844 39.9307C94.3062 40.3638 95.1484 40.5804 96.1108 40.5804C97.2658 40.5804 98.2523 40.2916 99.0704 39.7142C99.8885 39.1206 100.482 38.3908 100.851 37.5246L104.075 39.2089C103.706 40.0911 103.137 40.8932 102.367 41.615C101.613 42.3208 100.707 42.8903 99.6478 43.3234C98.5891 43.7404 97.4182 43.949 96.1349 43.949Z" fill="black"/>
</svg>
