<svg width="975" height="899" viewBox="0 0 975 899" fill="none" xmlns="http://www.w3.org/2000/svg">
<path d="M2.74246 616.628C26.0092 852.922 250.812 922.471 454.47 890.087C748.162 843.388 877.629 601.255 773.746 309.508C669.862 17.7606 265.954 -149.741 281.091 188.791C296.229 527.324 -23.805 347.015 2.74246 616.628Z" stroke="#4A4A4A"/>
<path d="M516.156 726.947C598.329 855.729 747.551 830.15 854.954 752.253C1009.84 639.919 1013.59 463.302 869.013 326.189C724.44 189.077 443.937 210.63 551.224 400.431C658.512 590.232 422.396 580.007 516.156 726.947Z" stroke="#4A4A4A"/>
<path d="M27.1874 623.527C56.2348 854.262 278.18 916.393 476.719 879.285C763.029 825.773 883.366 585.271 773.917 302.381C664.469 19.4921 264.566 -133.793 288.366 197.257C312.166 528.307 -5.95586 360.257 27.1874 623.527Z" stroke="#4A4A4A"/>
<path d="M51.8481 630.359C86.2994 855.498 305.209 910.542 498.618 869.039C777.529 809.187 889.074 570.592 774.549 296.488C660.024 22.3838 264.513 -117.265 296.441 206.222C328.369 529.709 12.539 373.474 51.8481 630.359Z" stroke="#4A4A4A"/>
<path d="M76.6884 637.098C116.178 856.623 331.895 904.907 520.176 859.325C791.692 793.592 894.786 557.157 775.651 291.746C656.517 26.3355 265.745 -100.253 305.283 215.616C344.82 531.486 31.63 386.62 76.6884 637.098Z" stroke="#4A4A4A"/>
<path d="M101.672 643.723C145.848 857.63 358.235 899.475 541.404 850.121C805.548 778.948 900.528 544.903 777.232 288.077C653.936 31.2515 268.214 -82.849 314.858 225.373C361.501 533.595 51.2675 399.653 101.672 643.723Z" stroke="#4A4A4A"/>
<path d="M126.765 650.211C175.286 858.515 384.223 894.236 562.308 841.405C819.122 765.217 906.323 533.768 779.293 285.404C652.262 37.0401 271.865 -65.1359 325.129 235.431C378.393 535.998 71.4016 412.536 126.765 650.211Z" stroke="#4A4A4A"/>
<path d="M151.929 656.547C204.468 859.273 409.853 889.181 582.896 833.155C832.438 752.36 912.192 523.691 781.833 283.653C651.475 43.6137 276.645 -47.1932 336.06 245.731C395.474 538.655 91.9826 425.235 151.929 656.547Z" stroke="#4A4A4A"/>
<path d="M177.132 662.713C233.373 859.902 435.122 884.299 603.172 825.349C845.514 740.339 918.15 514.615 784.85 282.752C651.55 50.8889 282.496 -29.095 347.61 256.219C412.723 541.533 112.961 437.721 177.132 662.713Z" stroke="#4A4A4A"/>
<path d="M202.339 668.698C261.98 860.399 460.024 879.582 623.141 817.968C858.37 729.115 924.211 506.482 788.336 282.634C652.461 58.7861 289.362 -10.9098 359.74 266.844C430.118 544.599 134.288 449.965 202.339 668.698Z" stroke="#4A4A4A"/>
<path d="M227.515 674.488C290.268 860.765 484.552 875.021 642.805 810.99C871.02 718.651 930.385 499.234 792.28 283.232C654.176 67.2303 297.182 7.29898 372.408 277.56C447.634 547.82 155.914 461.945 227.515 674.488Z" stroke="#4A4A4A"/>
<path d="M252.629 680.075C318.217 861 508.7 870.609 662.167 804.396C883.479 708.912 936.678 492.819 796.671 284.484C656.665 76.1501 305.899 25.4726 385.574 288.322C465.248 551.17 177.793 473.639 252.629 680.075Z" stroke="#4A4A4A"/>
<path d="M277.647 685.451C345.807 861.104 532.464 866.338 681.228 798.168C895.757 699.86 943.096 487.183 801.494 286.33C659.892 85.4784 315.452 43.5571 399.194 299.09C482.937 554.622 199.876 485.03 277.647 685.451Z" stroke="#4A4A4A"/>
<path d="M302.539 690.609C373.021 861.08 555.836 862.202 699.987 792.286C907.864 691.461 949.64 482.274 806.732 288.713C663.824 95.1516 325.781 61.5031 413.228 309.827C500.675 558.151 222.119 496.101 302.539 690.609Z" stroke="#4A4A4A"/>
<path d="M327.274 695.546C399.841 860.931 578.811 858.193 718.444 786.733C919.807 683.681 956.311 478.044 812.366 291.577C668.421 105.11 336.826 79.2655 427.632 320.5C518.438 561.734 244.475 506.842 327.274 695.546Z" stroke="#4A4A4A"/>
<path d="M351.823 700.258C426.25 860.66 601.382 854.308 736.599 781.492C931.593 676.486 963.105 474.446 818.376 294.872C673.647 115.298 348.528 96.8032 442.365 331.077C536.202 565.351 266.902 517.24 351.823 700.258Z" stroke="#4A4A4A"/>
<path d="M376.156 704.744C452.231 860.27 623.543 850.539 754.448 776.547C943.224 669.844 970.02 471.432 824.74 298.548C679.461 125.663 360.827 114.08 457.384 341.531C553.942 568.983 289.355 527.288 376.156 704.744Z" stroke="#4A4A4A"/>
<path d="M400.247 709.002C477.77 859.767 645.287 846.883 771.989 771.882C954.704 663.724 977.048 468.959 831.436 302.558C685.824 136.157 373.665 131.061 472.649 351.837C571.633 572.613 311.793 536.98 400.247 709.002Z" stroke="#4A4A4A"/>
<path d="M424.068 713.035C502.85 859.154 666.609 843.335 789.22 767.482C966.034 658.095 984.182 466.986 838.439 306.86C692.695 146.734 386.983 147.719 488.116 361.972C589.25 576.225 334.177 546.311 424.068 713.035Z" stroke="#4A4A4A"/>
<path d="M447.593 716.842C527.46 858.439 687.503 839.891 806.136 763.332C977.214 652.927 991.414 465.471 845.724 311.411C700.034 157.352 400.725 164.026 503.748 371.915C606.771 579.804 356.466 555.279 447.593 716.842Z" stroke="#4A4A4A"/>
<path d="M470.799 720.427C551.584 857.625 707.962 836.548 822.733 759.419C988.243 648.193 998.733 464.376 853.265 316.174C707.798 167.972 414.834 179.96 519.502 381.65C624.17 583.34 378.623 563.884 470.799 720.427Z" stroke="#4A4A4A"/>
<path d="M493.661 723.795C575.211 856.72 727.98 833.302 839.008 755.73C999.119 643.866 1006.13 463.665 861.037 321.111C715.947 178.558 429.256 195.5 535.34 391.159C641.425 586.819 400.611 572.126 493.661 723.795Z" stroke="#4A4A4A"/>
</svg>
